<svg width="100" height="100" viewBox="0 0 60 60" fill="none" xmlns="http://www.w3.org/2000/svg">
    <path fillRule="evenodd" clipRule="evenodd" d="M28.2111 31.6068L17.4994 26.251L11.7889 29.1063C11.0083 29.4966 10.618 29.6917 10.618 30.0007C10.618 30.3097 11.0083 30.5049 11.7888 30.8951L11.7888 30.8951L11.7889 30.8951L11.7889 30.8951L29.1056 39.5535C29.5445 39.7729 29.7639 39.8827 30 39.8827C30.2361 39.8827 30.4555 39.7729 30.8944 39.5535L48.2112 30.8951C48.9917 30.5049 49.382 30.3097 49.382 30.0007C49.382 29.6917 48.9917 29.4966 48.2112 29.1063L42.5006 26.251L31.7888 31.6068C30.911 32.0457 30.4721 32.2652 30 32.2652C29.5279 32.2652 29.0889 32.0457 28.2111 31.6068Z" fill="#1363ff"/>
    <path fillRule="evenodd" clipRule="evenodd" d="M17.4982 38.751L28.2112 44.1075C29.089 44.5464 29.5279 44.7658 30 44.7658C30.4722 44.7658 30.9111 44.5464 31.7889 44.1075L42.5018 38.751L48.2112 41.6057C48.9917 41.9959 49.382 42.1911 49.382 42.5001C49.382 42.8091 48.9917 43.0042 48.2112 43.3945L30.8944 52.0529C30.4555 52.2723 30.2361 52.382 30 52.382C29.7639 52.382 29.5445 52.2723 29.1056 52.0529L11.7889 43.3945L11.7889 43.3945L11.7888 43.3945C11.0083 43.0042 10.618 42.8091 10.618 42.5001C10.618 42.1911 11.0083 41.9959 11.7889 41.6057L17.4982 38.751Z" fill="#1363ff"/>
    <path d="M29.6076 12.7081L13.2783 18.3826C12.1483 18.7753 11.5833 18.9716 11.5833 19.3272C11.5833 19.6828 12.1483 19.8791 13.2783 20.2718L29.6076 25.9462C29.9327 26.0592 30.0953 26.1157 30.2641 26.1157C30.4329 26.1157 30.5954 26.0592 30.9206 25.9462L47.2498 20.2718C48.3798 19.8791 48.9448 19.6828 48.9448 19.3272C48.9448 18.9716 48.3798 18.7753 47.2498 18.3826L30.9206 12.7081C30.5954 12.5951 30.4329 12.5386 30.2641 12.5386C30.0953 12.5386 29.9327 12.5951 29.6076 12.7081Z" fill="#1363ff"/>
</svg>